<?xml version="1.0" encoding="iso-8859-1"?>
<svg version="1.1" id="Layer_1" xmlns="http://www.w3.org/2000/svg" xmlns:xlink="http://www.w3.org/1999/xlink" x="0px" y="0px"
	 viewBox="0 0 145 145" style="enable-background:new 0 0 145 145;" xml:space="preserve">
	<g id="man_1">
		<rect style="fill:#60B0C9;" width="145" height="145"/>
		<g>
			<ellipse style="fill:#5A3017;" cx="86.95" cy="81.002" rx="16.518" ry="18.002"/>
			<path style="fill:#F1C9A5;" d="M109.374,115.396c-4.964-9.397-36.874-15.293-36.874-15.293s-31.911,5.896-36.875,15.293
				C31.958,128.434,28.888,145,28.888,145H72.5h43.611C116.112,145,114.04,127.237,109.374,115.396z"/>
			<path style="fill:#E4B692;" d="M72.501,100.103c0,0,31.91,5.896,36.874,15.293c4.665,11.842,6.737,29.604,6.737,29.604H72.501
				V100.103z"/>
			<rect x="63.813" y="81.002" style="fill:#F1C9A5;" width="17.374" height="29.077"/>
			<rect x="72.501" y="81.002" style="fill:#E4B692;" width="8.686" height="29.077"/>
			<path style="fill:#F1C9A5;" d="M94.837,62.652c0-18.161-10.001-28.489-22.337-28.489c-12.337,0-22.338,10.328-22.338,28.489
				c0,18.162,10.001,32.888,22.338,32.888S94.837,80.814,94.837,62.652z"/>
			<path style="fill:#E4B692;" d="M91.438,75.245c-4.049-0.451-6.783-5.088-6.098-10.353c0.678-5.269,4.513-9.179,8.563-8.733
				c4.047,0.449,6.777,5.084,6.094,10.353C99.318,71.781,95.487,75.689,91.438,75.245z"/>
			<path style="fill:#F1C9A5;" d="M45.161,66.513c-0.684-5.269,2.047-9.903,6.092-10.353c4.053-0.446,7.888,3.464,8.567,8.733
				c0.683,5.265-2.053,9.901-6.1,10.353C49.671,75.689,45.84,71.781,45.161,66.513z"/>
			<path style="fill:#E4B692;" d="M94.837,62.652c0-18.161-10.001-28.489-22.337-28.489V95.54
				C84.837,95.54,94.837,80.814,94.837,62.652z"/>
			<path style="fill:#9E1F63;" d="M102.039,65.792c0,0-12.06,6.029-20.501-10.855c-5.628,0.805-22.513-2.411-25.729-10.451
				c-2.813,12.06-10.753,14.435-4.824,26.531c4.37,8.916,3.618,24.523,3.618,24.523S36.334,78.865,38.994,56.126
				c2.994-25.604,9.178-32.544,17.619-30.133c6.835-8.844,27.738-7.638,36.181,3.217c8.441,10.854,6.064,15.653,9.245,20.1
				C108.134,57.831,102.039,65.792,102.039,65.792z"/>
			<polyline style="fill:none;stroke:#9E1F63;stroke-width:1.0637;stroke-miterlimit:10;" points="47.503,107.212 90.388,119.538
				101.22,112.105 97.497,107.212 48.921,119.538 56.013,125.224 97.852,116.218 79.946,127.707 48.212,112.991 		"/>
		</g>
		<g>
			<!-- Aquí empieza la adición para describir al hombre -->
			<circle style="fill:#FFFFFF;" cx="75" cy="55" r="10"/>
			<path style="fill:#9E1F63;" d="M70,68c0,6.075,4.925,11,11,11s11-4.925,11-11v-4H70V68z"/>
			<path style="fill:#5A3017;" d="M72,74c0,1.104,0.896,2,2,2s2-0.896,2-2V66h-4V74z"/>
			<path style="fill:#9E1F63;" d="M55,90v9.617C55,114.06,65.345,125,72.5,125s17.5-10.94,17.5-24.383V90H55z"/>
			<path style="fill:#E4B692;" d="M72.5,103.974c-6.686,0-12.127-4.385-12.127-9.774V90h24.254v4.2
				C84.627,99.589,79.186,103.974,72.5,103.974z"/>
			<path style="fill:#F1C9A5;" d="M72.5,99.735c4.447,0,8.054-2.817,8.054-6.283V90H64.446v3.452
				C64.446,96.918,68.053,99.735,72.5,99.735z"/>
			<rect x="67.751" y="99.162" style="fill:#E4B692;" width="9.497" height="3.163"/>
			<path style="fill:#FFFFFF;" d="M72.5,80.053c6.652,0,12.053,5.395,12.053,12.047c0,6.653-5.401,12.047-12.053,12.047
				c-6.652,0-12.053-5.394-12.053-12.047C60.447,85.448,65.848,80.053,72.5,80.053z"/>
			<path style="fill:#F1C9A5;" d="M72.5,83.553c5.51,0,9.997,4.487,9.997,9.997s-4.487,9.997-9.997,9.997
				s-9.997-4.487-9.997-9.997S66.99,83.553,72.5,83.553z"/>
			<path style="fill:#5A3017;" d="M75.051,90.625c0-2.878-2.339-5.217-5.217-5.217s-5.217,2.339-5.217,5.217
				s2.339,5.217,5.217,5.217S75.051,93.503,75.051,90.625z"/>
			<path style="fill:#FFFFFF;" d="M76.549,88.301c-0.653-0.418-1.494-0.603-2.306-0.472c-1.654,0.225-3.044,1.782-3.257,3.52
				c-0.252,2.068,1.153,3.993,3.002,4.423c1.888,0.434,3.778-0.912,4.124-2.782C78.288,91.453,77.46,88.975,76.549,88.301z"/>
			<path style="fill:#5A3017;" d="M72.5,94.053c-1.462,0-2.647-1.186-2.647-2.648c0-1.461,1.185-2.648,2.647-2.648
				c1.462,0,2.648,1.186,2.648,2.648C75.148,92.867,73.962,94.053,72.5,94.053z"/>
			<path style="fill:#FFFFFF;" d="M75.34,92.475c-0.219-0.141-0.499-0.202-0.774-0.157c-0.556,0.075-1.286,0.59-1.378,1.166
				c-0.107,0.877,0.492,1.692,1.283,1.875c0.808,0.185,1.615-0.389,1.759-1.184C76.735,93.628,76.104,92.67,75.34,92.475z"/>
			<path style="fill:#FFFFFF;" d="M80.525,85.23c-0.688-0.439-1.571-0.635-2.437-0.496c-1.745,0.238-3.209,1.881-3.434,3.721
				c-0.266,2.183,1.214,4.202,3.166,4.656c1.989,0.456,3.982-0.96,4.336-2.916C82.929,88.39,82.065,85.846,80.525,85.23z"/>
			<path style="fill:#5A3017;" d="M77.964,91.679c0-3.138-2.55-5.688-5.688-5.688s-5.688,2.55-5.688,5.688
				c0,3.139,2.55,5.688,5.688,5.688S77.964,94.818,77.964,91.679z"/>
			<path style="fill:#FFFFFF;" d="M81.139,87.356c-0.376-0.242-0.858-0.347-1.334-0.27c-0.953,0.129-2.207,1.013-2.365,2.005
				c-0.183,1.498,0.841,2.889,2.191,3.194c1.376,0.316,2.748-0.664,2.99-2.021C83.379,89.393,82.587,87.726,81.139,87.356z"/>
		</g>
	</g>
</svg>
